<svg width="88" height="80" viewBox="0 0 88 80" fill="none" xmlns="http://www.w3.org/2000/svg">
<g filter="url(#filter0_d_1_2)">
<path d="M42 68H34V60H26V20H34V12H42V20H50V28H34V36H50V44H34V52H50V60H42V68ZM58 36H50V28H58V36ZM58 52H50V44H58V52Z" fill="#34D3A6"/>
</g>
<path d="M40 5C58.0389 5 73 20.701 73 40.5C73 60.299 58.0389 76 40 76C21.9611 76 7 60.299 7 40.5C7 20.701 21.9611 5 40 5Z" stroke="#34D399" stroke-width="6"/>
<defs>
<filter id="filter0_d_1_2" x="22" y="12" width="40" height="64" filterUnits="userSpaceOnUse" color-interpolation-filters="sRGB">
<feFlood flood-opacity="0" result="BackgroundImageFix"/>
<feColorMatrix in="SourceAlpha" type="matrix" values="0 0 0 0 0 0 0 0 0 0 0 0 0 0 0 0 0 0 127 0" result="hardAlpha"/>
<feOffset dy="4"/>
<feGaussianBlur stdDeviation="2"/>
<feComposite in2="hardAlpha" operator="out"/>
<feColorMatrix type="matrix" values="0 0 0 0 0 0 0 0 0 0 0 0 0 0 0 0 0 0 0.25 0"/>
<feBlend mode="normal" in2="BackgroundImageFix" result="effect1_dropShadow_1_2"/>
<feBlend mode="normal" in="SourceGraphic" in2="effect1_dropShadow_1_2" result="shape"/>
</filter>
</defs>
</svg>
